<svg width="229" height="217" viewBox="0 0 229 217" fill="none" xmlns="http://www.w3.org/2000/svg">
<g filter="url(#filter0_d_56_1176)">
<rect x="4" width="220.548" height="208.384" rx="10" fill="#312755"/>
<g filter="url(#filter1_d_56_1176)">
<rect x="98.8594" y="42.6968" width="29.6436" height="28.4645" rx="3" fill="white"/>
</g>
<g filter="url(#filter2_d_56_1176)">
<rect x="145.104" y="79.4634" width="28.4578" height="28.4645" rx="3" fill="white"/>
</g>
<g filter="url(#filter3_d_56_1176)">
<rect x="54.9868" y="79.4634" width="28.4578" height="28.4645" rx="3" fill="white"/>
</g>
<g filter="url(#filter4_d_56_1176)">
<rect x="54.9868" y="134.021" width="118.574" height="28.4645" rx="3" fill="white"/>
</g>
<path d="M112.218 52.083C112.405 52.083 112.577 52.0127 112.733 51.8721C112.874 51.7158 113.038 51.5986 113.226 51.5205C113.444 51.4268 113.663 51.4033 113.882 51.4502C114.101 51.4814 114.296 51.5674 114.468 51.708C114.64 51.8486 114.788 52.0361 114.913 52.2705C115.038 52.4893 115.124 52.7471 115.171 53.0439C115.093 53.2314 115.062 53.3799 115.077 53.4893C115.093 53.583 115.062 53.7158 114.983 53.8877C115.171 54.1689 115.358 54.5127 115.546 54.9189C115.718 55.3096 115.765 55.6924 115.687 56.0674C115.812 56.1143 115.874 56.208 115.874 56.3486C115.874 56.4736 115.944 56.5518 116.085 56.583C116.194 57.2236 116.366 57.8486 116.601 58.458C116.835 59.0674 117.093 59.6611 117.374 60.2393C117.64 60.8174 117.913 61.3799 118.194 61.9268C118.476 62.458 118.718 62.9736 118.921 63.4736C118.858 63.6924 118.866 63.8955 118.944 64.083C119.007 64.2705 119.03 64.4658 119.015 64.6689C118.968 64.6221 118.937 64.6143 118.921 64.6455C118.905 64.6768 118.897 64.7236 118.897 64.7861C118.882 64.8486 118.874 64.9189 118.874 64.9971C118.858 65.0596 118.827 65.1143 118.78 65.1611C118.671 65.333 118.585 65.458 118.522 65.5361C118.46 65.6299 118.413 65.7002 118.382 65.7471C118.351 65.8096 118.312 65.8721 118.265 65.9346C118.218 65.9971 118.147 66.083 118.054 66.1924C117.897 66.1299 117.772 66.0908 117.679 66.0752C117.569 66.0752 117.476 66.083 117.397 66.0986C117.304 66.1143 117.21 66.1299 117.116 66.1455C117.022 66.1768 116.897 66.1846 116.741 66.1689C116.194 65.3096 115.765 64.5518 115.452 63.8955C115.124 63.2393 114.843 62.5986 114.608 61.9736C114.374 61.3486 114.155 60.708 113.952 60.0518C113.733 59.3799 113.452 58.6064 113.108 57.7314C112.905 58.0908 112.718 58.5596 112.546 59.1377C112.374 59.7002 112.187 60.2705 111.983 60.8486C111.765 61.4111 111.499 61.9268 111.187 62.3955C110.874 62.8643 110.468 63.1768 109.968 63.333C109.952 63.5518 109.827 63.7471 109.593 63.9189C109.358 64.0752 109.085 64.1377 108.772 64.1064C108.679 63.9502 108.577 63.8096 108.468 63.6846C108.343 63.5439 108.249 63.3721 108.187 63.1689C108.155 62.9971 108.171 62.7783 108.233 62.5127C108.296 62.2314 108.382 61.9346 108.491 61.6221C108.601 61.2939 108.718 60.958 108.843 60.6143C108.968 60.2549 109.069 59.9189 109.147 59.6064C109.226 59.2939 109.296 58.958 109.358 58.5986C109.421 58.2236 109.515 57.8799 109.64 57.5674C109.702 57.4268 109.78 57.3096 109.874 57.2158C109.952 57.1064 110.007 56.9814 110.038 56.8408C110.085 56.5596 110.179 56.2627 110.319 55.9502C110.444 55.6221 110.585 55.2939 110.741 54.9658C110.897 54.6377 111.062 54.3174 111.233 54.0049C111.39 53.6768 111.522 53.3721 111.632 53.0908C111.726 53.1064 111.843 53.0049 111.983 52.7861C112.124 52.5674 112.202 52.333 112.218 52.083Z" fill="#312755"/>
<path d="M61.6445 95.4214L61.873 95.2456L61.8906 94.8765C62.1836 94.1616 62.4824 93.4761 62.7871 92.8198C63.1035 92.1636 63.4316 91.4897 63.7715 90.7983C63.877 90.5757 63.9824 90.353 64.0879 90.1304C64.2051 89.9077 64.3164 89.6792 64.4219 89.4448C64.4102 89.3979 64.4043 89.3511 64.4043 89.3042C64.4043 89.2456 64.416 89.1812 64.4395 89.1108C64.6035 88.8765 64.7324 88.6655 64.8262 88.478C64.9316 88.2905 65.0312 88.0972 65.125 87.8979C65.2305 87.6636 65.3418 87.4292 65.459 87.1948C65.5879 86.9604 65.7461 86.7319 65.9336 86.5093L66.0566 86.3335L66.25 86.3511C66.2969 86.3276 66.3438 86.3101 66.3906 86.2983C66.4492 86.2749 66.5195 86.2632 66.6016 86.2632L66.918 86.3159C67.3047 86.1401 67.6445 85.8882 67.9375 85.5601C68.2422 85.2202 68.5469 84.8159 68.8516 84.3472L69.0625 84.0483L69.3438 84.2241C69.4023 84.2593 69.4961 84.2944 69.625 84.3296C69.7539 84.3647 69.8887 84.4058 70.0293 84.4526C70.2754 84.5112 70.5156 84.5815 70.75 84.6636C70.9844 84.7339 71.166 84.8335 71.2949 84.9624L71.3828 85.1206C71.4062 85.2495 71.4238 85.3667 71.4355 85.4722C71.459 85.5776 71.4824 85.6831 71.5059 85.7886C71.5527 86.0347 71.5938 86.2808 71.6289 86.5269C71.6641 86.7612 71.6875 87.0249 71.6992 87.3179C71.7578 87.5522 71.8105 87.7925 71.8574 88.0386C71.916 88.2729 71.9688 88.5073 72.0156 88.7417C72.0742 89.0815 72.1387 89.4097 72.209 89.7261C72.2793 90.0308 72.373 90.3237 72.4902 90.605C72.6074 90.605 72.6777 90.6108 72.7012 90.6226C72.8418 90.564 73.0059 90.5288 73.1934 90.5171L73.4219 90.4995L73.4922 90.7104C73.5156 90.7456 73.5449 90.7808 73.5801 90.8159C73.6152 90.8511 73.6562 90.8862 73.7031 90.9214C73.8906 90.9331 74.0254 90.9741 74.1074 91.0444C74.2012 91.103 74.2773 91.1616 74.3359 91.2202C74.3594 91.2437 74.3887 91.2729 74.4238 91.3081C74.459 91.3315 74.4883 91.3491 74.5117 91.3608L74.8281 91.4839L74.6523 91.8179C74.5234 92.064 74.3242 92.3042 74.0547 92.5386C73.7969 92.7729 73.5039 92.9663 73.1758 93.1187C73.1992 93.2007 73.2109 93.2769 73.2109 93.3472C73.2227 93.4175 73.2402 93.4995 73.2637 93.5933C73.3105 93.8276 73.3457 94.0737 73.3691 94.3315C73.4043 94.5776 73.4043 94.8354 73.3691 95.105C73.252 95.4097 73.1113 95.6851 72.9473 95.9312C72.7949 96.1655 72.6074 96.3823 72.3848 96.5815C72.1738 96.769 71.9336 96.9272 71.6641 97.0562C71.3945 97.1733 71.1133 97.2378 70.8203 97.2495C70.6562 97.2144 70.5332 97.1733 70.4512 97.1265C70.3809 97.0796 70.3164 97.0327 70.2578 96.9858C70.1641 96.9155 70.0879 96.8687 70.0293 96.8452L69.8008 96.7397L69.8711 96.4761C69.9062 96.3823 69.9004 96.3003 69.8535 96.23C69.8184 96.1597 69.7363 96.0659 69.6074 95.9487C69.5605 95.9136 69.5195 95.8784 69.4844 95.8433C69.4492 95.7964 69.4082 95.7495 69.3613 95.7026L69.0098 95.2983L69.5898 95.1401C69.9414 95.0464 70.1758 94.9292 70.293 94.7886C70.4102 94.6362 70.457 94.3726 70.4336 93.9976C70.1406 93.939 69.9004 93.9331 69.7129 93.98C69.5254 94.0151 69.3379 94.0562 69.1504 94.103C68.8809 94.1733 68.6172 94.2378 68.3594 94.2964C68.1016 94.3433 67.8203 94.3667 67.5156 94.3667C67.3164 94.3667 67.1055 94.3491 66.8828 94.314L66.6895 94.2964L66.6367 94.103C66.6367 94.0796 66.6191 94.0562 66.584 94.0327C66.5605 93.9976 66.5371 93.9683 66.5137 93.9448C66.4551 93.8745 66.3848 93.7808 66.3027 93.6636C66.2207 93.5464 66.2031 93.3999 66.25 93.2241C66.168 93.0952 66.1211 92.9604 66.1094 92.8198C66.0625 92.9136 66.0215 93.0073 65.9863 93.1011C65.9629 93.1831 65.9395 93.2651 65.916 93.3472L65.8457 93.5757L65.6172 93.6108C65.5938 93.6343 65.5703 93.6694 65.5469 93.7163C65.5352 93.7632 65.5352 93.7983 65.5469 93.8218L65.6172 94.0151L65.4414 94.1733C65.418 94.2085 65.3887 94.2378 65.3535 94.2612C65.3184 94.2847 65.2891 94.3081 65.2656 94.3315C65.2422 94.4604 65.207 94.5835 65.1602 94.7007C65.125 94.8179 65.084 94.9351 65.0371 95.0522C64.9785 95.2397 64.9199 95.4214 64.8613 95.5972C64.8145 95.7729 64.791 95.9487 64.791 96.1245L64.7207 96.353C64.6621 96.4468 64.5859 96.5171 64.4922 96.564C64.4102 96.6108 64.3281 96.6519 64.2461 96.687C64.1289 96.7339 64.0469 96.7808 64 96.8276L63.9473 97.0562L63.6836 97.0913C63.5312 97.1265 63.4199 97.1499 63.3496 97.1616C63.291 97.1733 63.2207 97.1792 63.1387 97.1792L62.9102 97.1616C62.7695 97.021 62.6523 96.9155 62.5586 96.8452C62.4766 96.7632 62.377 96.6929 62.2598 96.6343L62.1543 96.4937C62.1074 96.3999 62.0781 96.3179 62.0664 96.2476C62.0547 96.1655 62.0371 96.0835 62.0137 96.0015C61.9902 95.8491 61.9551 95.7437 61.9082 95.6851L61.6445 95.4214ZM67.252 90.8511C67.0879 91.0854 66.9297 91.3315 66.7773 91.5894C66.8594 91.5776 66.9355 91.5718 67.0059 91.5718C67.0879 91.5718 67.1699 91.5659 67.252 91.5542C67.6621 91.5308 68.043 91.5015 68.3945 91.4663C68.7461 91.4312 69.127 91.3726 69.5371 91.2905C69.4434 90.8569 69.3379 90.4175 69.2207 89.9722C69.1152 89.5151 68.998 89.0581 68.8691 88.6011L68.7812 88.7769C68.4883 89.0933 68.207 89.4331 67.9375 89.7964C67.668 90.1597 67.4453 90.5054 67.2695 90.8335L67.252 90.8511Z" fill="#312755"/>
<path d="M153.94 97.2847C153.601 97.2026 153.337 97.0679 153.149 96.8804C152.974 96.6812 152.839 96.4526 152.745 96.1948C152.663 95.9253 152.604 95.6323 152.569 95.3159C152.546 94.9995 152.517 94.6714 152.481 94.3315C152.528 94.1792 152.587 94.0503 152.657 93.9448C152.739 93.8394 152.774 93.6929 152.763 93.5054C152.892 93.1304 153.009 92.7671 153.114 92.4155C153.22 92.064 153.29 91.7007 153.325 91.3257C153.396 91.2202 153.466 91.1499 153.536 91.1147C153.63 90.4468 153.642 89.7612 153.571 89.0581C153.501 88.355 153.384 87.7046 153.22 87.1069C153.231 86.978 153.249 86.8843 153.272 86.8257C153.296 86.7554 153.296 86.6968 153.272 86.6499C153.249 86.5444 153.284 86.4917 153.378 86.4917C153.472 86.4917 153.565 86.4917 153.659 86.4917C153.659 86.2808 153.618 86.0757 153.536 85.8765C153.466 85.6655 153.396 85.4253 153.325 85.1558C153.419 84.9448 153.483 84.7397 153.519 84.5405C153.554 84.3413 153.618 84.1597 153.712 83.9956C154.087 84.1128 154.456 84.2476 154.819 84.3999C155.183 84.5522 155.54 84.7046 155.892 84.8569C156.243 84.9976 156.589 85.1382 156.929 85.2788C157.269 85.4077 157.603 85.5132 157.931 85.5952C158.435 85.9585 158.95 86.3218 159.478 86.6851C160.017 87.0366 160.503 87.4292 160.937 87.8628C161.382 88.2847 161.751 88.771 162.044 89.3218C162.337 89.8726 162.507 90.5229 162.554 91.2729C162.53 91.3433 162.513 91.4019 162.501 91.4487C162.489 91.4956 162.478 91.5425 162.466 91.5894C162.454 91.6362 162.448 91.689 162.448 91.7476C162.448 91.8062 162.448 91.8882 162.448 91.9937C162.026 92.7319 161.493 93.353 160.849 93.8569C160.204 94.3608 159.501 94.8062 158.739 95.1929C157.978 95.5796 157.181 95.937 156.349 96.2651C155.528 96.5815 154.726 96.9214 153.94 97.2847ZM155.663 87.3179C155.558 87.3179 155.481 87.3413 155.435 87.3882C155.575 87.9155 155.681 88.4136 155.751 88.8823C155.821 89.3511 155.856 89.8198 155.856 90.2886C155.868 90.7573 155.845 91.2378 155.786 91.73C155.728 92.2222 155.646 92.7554 155.54 93.3296C155.692 93.3179 155.827 93.2886 155.944 93.2417C156.062 93.1948 156.179 93.1421 156.296 93.0835C156.425 93.0249 156.554 92.9722 156.683 92.9253C156.823 92.8784 156.981 92.8491 157.157 92.8374C157.204 92.7437 157.263 92.6733 157.333 92.6265C157.415 92.5679 157.485 92.5093 157.544 92.4507C157.837 92.3335 158.13 92.2104 158.423 92.0815C158.716 91.9526 158.985 91.8062 159.231 91.6421C159.478 91.478 159.7 91.2905 159.899 91.0796C160.099 90.8687 160.263 90.6167 160.392 90.3237C160.298 90.1479 160.181 90.0015 160.04 89.8843C159.911 89.7554 159.771 89.6323 159.618 89.5151C159.478 89.3862 159.337 89.2573 159.196 89.1284C159.067 88.9878 158.962 88.8296 158.88 88.6538C158.692 88.6304 158.528 88.5835 158.388 88.5132C158.247 88.4312 158.112 88.355 157.983 88.2847C157.854 88.2026 157.714 88.1265 157.562 88.0562C157.421 87.9858 157.251 87.9448 157.052 87.9331C156.747 87.769 156.472 87.6577 156.226 87.5991C155.979 87.5288 155.792 87.4351 155.663 87.3179Z" fill="#312755"/>
<path d="M86.0977 143.738C86.1797 143.492 86.3086 143.281 86.4844 143.105C86.6719 142.93 86.8711 142.783 87.082 142.666C87.3047 142.537 87.5332 142.432 87.7676 142.35C88.002 142.268 88.2246 142.197 88.4355 142.139C88.9043 141.939 89.4023 141.752 89.9297 141.576C90.4688 141.389 91.0137 141.225 91.5645 141.084C92.127 140.943 92.7012 140.855 93.2871 140.82C93.873 140.773 94.4883 140.844 95.1328 141.031C95.168 141.148 95.2207 141.26 95.291 141.365C95.3613 141.471 95.4316 141.576 95.502 141.682C95.584 141.787 95.6543 141.893 95.7129 141.998C95.7715 142.092 95.8066 142.191 95.8184 142.297C95.9355 142.402 96.0293 142.52 96.0996 142.648C96.1699 142.766 96.1816 142.924 96.1348 143.123C96.0176 143.217 95.9004 143.305 95.7832 143.387C95.6777 143.457 95.5605 143.521 95.4316 143.58C94.998 143.475 94.5586 143.439 94.1133 143.475C93.668 143.51 93.2695 143.539 92.918 143.562C92.8125 143.457 92.6836 143.404 92.5312 143.404C92.3906 143.404 92.2383 143.428 92.0742 143.475C91.9219 143.521 91.7637 143.568 91.5996 143.615C91.4473 143.662 91.3008 143.674 91.1602 143.65C91.043 143.744 90.8965 143.809 90.7207 143.844C90.5566 143.867 90.375 143.891 90.1758 143.914C90.1641 143.973 90.1758 144.014 90.2109 144.037C90.2461 144.049 90.252 144.084 90.2285 144.143C90.2988 144.225 90.3867 144.283 90.4922 144.318C90.6094 144.354 90.7266 144.389 90.8438 144.424C90.9727 144.459 91.084 144.506 91.1777 144.564C91.2715 144.611 91.3359 144.693 91.3711 144.811C91.5469 144.811 91.6992 144.852 91.8281 144.934C91.957 145.016 92.0625 145.115 92.1445 145.232C92.2266 145.35 92.2852 145.479 92.3203 145.619C92.3672 145.748 92.3906 145.865 92.3906 145.971C92.4258 146.064 92.4668 146.105 92.5137 146.094C92.5605 146.082 92.6133 146.105 92.6719 146.164C92.707 146.316 92.7949 146.475 92.9355 146.639C93.0762 146.791 93.1875 146.961 93.2695 147.148C93.293 147.441 93.3105 147.705 93.3223 147.939C93.334 148.162 93.293 148.391 93.1992 148.625C93.0234 149.059 92.7773 149.445 92.4609 149.785C92.1562 150.125 91.8047 150.43 91.4062 150.699C91.0195 150.957 90.6035 151.18 90.1582 151.367C89.7129 151.555 89.2793 151.713 88.8574 151.842C88.8105 151.83 88.7637 151.83 88.7168 151.842C88.6699 151.854 88.6582 151.824 88.6816 151.754C88.5879 151.836 88.4824 151.889 88.3652 151.912C88.2598 151.936 88.1426 151.941 88.0137 151.93C87.8848 151.93 87.75 151.924 87.6094 151.912C87.4805 151.9 87.3574 151.906 87.2402 151.93C87.1582 151.848 87.082 151.766 87.0117 151.684C86.9531 151.613 86.9062 151.52 86.8711 151.402C86.8125 151.402 86.7832 151.373 86.7832 151.314C86.7949 151.256 86.7773 151.227 86.7305 151.227C86.8008 151.109 86.8301 151.045 86.8184 151.033C86.8184 151.01 86.8008 150.992 86.7656 150.98C86.7422 150.969 86.7188 150.957 86.6953 150.945C86.6719 150.922 86.666 150.893 86.6777 150.857C86.7246 150.764 86.7422 150.658 86.7305 150.541C86.7188 150.412 86.707 150.283 86.6953 150.154C86.6836 150.025 86.6895 149.902 86.7129 149.785C86.748 149.668 86.8359 149.574 86.9766 149.504C87.375 149.551 87.75 149.539 88.1016 149.469C88.4648 149.387 88.8047 149.275 89.1211 149.135C89.4375 148.994 89.7363 148.842 90.0176 148.678C90.3105 148.514 90.5977 148.367 90.8789 148.238C90.9141 148.133 90.9609 148.045 91.0195 147.975C91.0898 147.904 91.1602 147.84 91.2305 147.781C91.3008 147.723 91.3652 147.658 91.4238 147.588C91.4824 147.518 91.5234 147.43 91.5469 147.324C91.5586 147.242 91.5352 147.195 91.4766 147.184C91.4297 147.16 91.4062 147.113 91.4062 147.043L91.2129 146.99C90.9902 146.861 90.7383 146.756 90.457 146.674C90.1758 146.58 89.9355 146.48 89.7363 146.375C89.6074 146.445 89.4844 146.463 89.3672 146.428C89.2617 146.393 89.1211 146.357 88.9453 146.322C88.5469 146.299 88.1602 146.258 87.7852 146.199C87.4219 146.141 87.0703 146.035 86.7305 145.883C86.707 145.824 86.6777 145.771 86.6426 145.725C86.6074 145.678 86.543 145.666 86.4492 145.689C86.3789 145.596 86.3086 145.508 86.2383 145.426C86.168 145.332 86.1035 145.232 86.0449 145.127C86.0684 144.986 86.0859 144.869 86.0977 144.775C86.1094 144.67 86.0742 144.57 85.9922 144.477C86.0391 144.324 86.0742 144.201 86.0977 144.107C86.1211 144.014 86.1211 143.891 86.0977 143.738ZM100.617 140.75C101.109 140.809 101.549 140.908 101.936 141.049C102.322 141.189 102.65 141.377 102.92 141.611C103.107 141.904 103.283 142.221 103.447 142.561C103.623 142.9 103.752 143.258 103.834 143.633C103.928 143.996 103.969 144.371 103.957 144.758C103.957 145.145 103.875 145.537 103.711 145.936C103.371 146.357 102.955 146.703 102.463 146.973C101.982 147.23 101.461 147.441 100.898 147.605C100.336 147.77 99.75 147.91 99.1406 148.027C98.543 148.145 97.957 148.262 97.3828 148.379C97.3945 148.648 97.3945 148.936 97.3828 149.24C97.3828 149.533 97.3535 149.832 97.2949 150.137C97.248 150.43 97.1719 150.717 97.0664 150.998C96.9609 151.279 96.8203 151.537 96.6445 151.771C96.4453 151.771 96.2402 151.795 96.0293 151.842C95.8184 151.9 95.6309 151.947 95.4668 151.982C95.3848 151.936 95.3086 151.889 95.2383 151.842C95.1797 151.807 95.0918 151.783 94.9746 151.771C94.998 151.654 94.9688 151.537 94.8867 151.42C94.8047 151.291 94.7227 151.162 94.6406 151.033C94.5586 150.904 94.5 150.781 94.4648 150.664C94.4414 150.547 94.5 150.436 94.6406 150.33C94.5586 150.248 94.5176 150.143 94.5176 150.014C94.5996 149.873 94.6699 149.68 94.7285 149.434C94.7988 149.188 94.8516 148.947 94.8867 148.713C94.9336 148.467 94.9453 148.244 94.9219 148.045C94.8984 147.846 94.7812 147.699 94.5703 147.605C94.582 147.582 94.6055 147.57 94.6406 147.57C94.6758 147.57 94.7109 147.564 94.7461 147.553C94.6523 147.482 94.5938 147.383 94.5703 147.254C94.5586 147.125 94.5176 147.014 94.4473 146.92C94.4707 146.861 94.4883 146.809 94.5 146.762C94.5117 146.715 94.5527 146.697 94.623 146.709C94.5879 146.498 94.5879 146.299 94.623 146.111C94.6699 145.924 94.7344 145.748 94.8164 145.584C94.8984 145.408 94.998 145.238 95.1152 145.074C95.2324 144.91 95.3438 144.746 95.4492 144.582C95.5312 144.57 95.5781 144.582 95.5898 144.617C95.6133 144.652 95.6543 144.646 95.7129 144.6C95.8652 144.482 95.9707 144.359 96.0293 144.23C96.0879 144.102 96.1172 143.955 96.1172 143.791C96.1992 143.545 96.2988 143.299 96.416 143.053C96.5332 142.795 96.6621 142.561 96.8027 142.35C96.9434 142.139 97.0957 141.951 97.2598 141.787C97.4355 141.623 97.6172 141.5 97.8047 141.418C97.9453 141.301 98.1211 141.195 98.332 141.102C98.543 140.996 98.7715 140.92 99.0176 140.873C99.2637 140.814 99.5098 140.785 99.7559 140.785C100.014 140.773 100.248 140.797 100.459 140.855C100.518 140.879 100.547 140.867 100.547 140.82C100.559 140.773 100.582 140.75 100.617 140.75ZM99.8965 144.951C100.189 144.822 100.5 144.723 100.828 144.652C101.168 144.57 101.449 144.424 101.672 144.213C101.531 144.084 101.326 143.973 101.057 143.879C100.787 143.773 100.494 143.709 100.178 143.686C99.8613 143.662 99.5391 143.691 99.2109 143.773C98.8945 143.844 98.6191 143.984 98.3848 144.195C98.3145 144.406 98.2559 144.576 98.209 144.705C98.1621 144.822 98.0977 144.969 98.0156 145.145C98.0391 145.203 98.0742 145.25 98.1211 145.285C98.1797 145.309 98.2207 145.35 98.2441 145.408C98.5137 145.268 98.7832 145.191 99.0527 145.18C99.334 145.156 99.6152 145.08 99.8965 144.951ZM112.377 150.172C112.307 150.371 112.201 150.576 112.061 150.787C111.932 150.986 111.773 151.168 111.586 151.332C111.41 151.484 111.211 151.613 110.988 151.719C110.766 151.824 110.531 151.883 110.285 151.895C110.133 151.859 110.027 151.818 109.969 151.771C109.922 151.736 109.869 151.701 109.811 151.666C109.775 151.643 109.74 151.625 109.705 151.613C109.682 151.59 109.658 151.572 109.635 151.561L109.424 151.473L109.494 151.244C109.518 151.15 109.512 151.08 109.477 151.033C109.441 150.975 109.371 150.898 109.266 150.805C109.23 150.77 109.195 150.734 109.16 150.699C109.125 150.664 109.096 150.629 109.072 150.594L108.773 150.26L109.248 150.137C109.541 150.055 109.734 149.949 109.828 149.82C109.934 149.691 109.975 149.475 109.951 149.17C109.717 149.123 109.518 149.117 109.354 149.152C109.201 149.188 109.043 149.229 108.879 149.275C108.668 149.334 108.451 149.387 108.229 149.434C108.018 149.469 107.783 149.486 107.525 149.486C107.432 149.486 107.344 149.486 107.262 149.486C107.18 149.475 107.092 149.463 106.998 149.451L106.822 149.416C106.799 149.287 106.775 149.217 106.752 149.205C106.729 149.182 106.705 149.158 106.682 149.135C106.623 149.076 106.559 149 106.488 148.906C106.43 148.801 106.418 148.672 106.453 148.52C106.395 148.414 106.359 148.309 106.348 148.203C106.277 148.344 106.225 148.49 106.189 148.643L106.119 148.818L105.943 148.854C105.92 148.865 105.902 148.895 105.891 148.941C105.879 148.977 105.873 149.006 105.873 149.029L105.785 149.328C105.762 149.352 105.738 149.375 105.715 149.398C105.691 149.41 105.668 149.428 105.645 149.451C105.621 149.557 105.592 149.662 105.557 149.768C105.521 149.873 105.486 149.973 105.451 150.066C105.393 150.219 105.34 150.371 105.293 150.523C105.258 150.664 105.246 150.805 105.258 150.945L105.188 151.139C105.129 151.209 105.064 151.268 104.994 151.314C104.924 151.35 104.854 151.385 104.783 151.42C104.76 151.443 104.725 151.467 104.678 151.49C104.643 151.502 104.613 151.514 104.59 151.525L104.537 151.719L104.326 151.754C104.197 151.777 104.104 151.795 104.045 151.807C103.998 151.818 103.939 151.824 103.869 151.824L103.693 151.807C103.564 151.701 103.465 151.619 103.395 151.561C103.324 151.49 103.242 151.426 103.148 151.367C103.043 151.227 102.984 151.121 102.973 151.051C102.961 150.98 102.949 150.916 102.938 150.857C102.914 150.787 102.902 150.729 102.902 150.682C102.891 150.635 102.873 150.6 102.85 150.576L102.621 150.365L102.814 150.207L102.832 149.908C103.066 149.311 103.312 148.736 103.57 148.186C103.84 147.635 104.115 147.072 104.396 146.498C104.49 146.311 104.578 146.123 104.66 145.936C104.754 145.748 104.848 145.561 104.941 145.373C104.93 145.338 104.924 145.297 104.924 145.25C104.924 145.203 104.936 145.15 104.959 145.092C105.088 144.893 105.193 144.717 105.275 144.564C105.357 144.4 105.439 144.236 105.521 144.072C105.615 143.873 105.709 143.68 105.803 143.492C105.908 143.305 106.037 143.111 106.189 142.912L106.471 142.789C106.506 142.777 106.547 142.766 106.594 142.754C106.641 142.73 106.693 142.719 106.752 142.719L107.016 142.754C107.344 142.602 107.631 142.391 107.877 142.121C108.123 141.84 108.375 141.506 108.633 141.119L108.809 140.873L109.037 141.014C109.096 141.049 109.178 141.084 109.283 141.119C109.389 141.143 109.5 141.172 109.617 141.207C109.828 141.254 110.027 141.307 110.215 141.365C110.402 141.424 110.555 141.512 110.672 141.629C110.742 141.816 110.783 141.957 110.795 142.051C110.807 142.145 110.824 142.238 110.848 142.332C110.883 142.531 110.912 142.73 110.936 142.93C110.971 143.129 110.994 143.352 111.006 143.598C111.064 143.797 111.111 143.996 111.146 144.195C111.193 144.383 111.234 144.576 111.27 144.775C111.328 145.057 111.387 145.332 111.445 145.602C111.504 145.859 111.58 146.105 111.674 146.34C111.768 146.34 111.826 146.346 111.85 146.357C111.908 146.334 111.967 146.316 112.025 146.305C112.096 146.293 112.172 146.281 112.254 146.27L112.447 146.252L112.518 146.428C112.529 146.486 112.588 146.545 112.693 146.604C112.846 146.615 112.957 146.65 113.027 146.709C113.098 146.756 113.162 146.809 113.221 146.867C113.268 146.914 113.314 146.949 113.361 146.973L113.625 147.078L113.484 147.342C113.367 147.553 113.197 147.758 112.975 147.957C112.764 148.145 112.523 148.303 112.254 148.432C112.266 148.502 112.271 148.572 112.271 148.643C112.283 148.701 112.301 148.766 112.324 148.836C112.359 149.035 112.389 149.24 112.412 149.451C112.436 149.662 112.436 149.879 112.412 150.102L112.377 150.172ZM107.297 147.131C107.648 147.107 107.965 147.084 108.246 147.061C108.539 147.025 108.861 146.973 109.213 146.902C109.131 146.551 109.043 146.188 108.949 145.812C108.855 145.426 108.756 145.045 108.65 144.67L108.545 144.846C108.311 145.092 108.082 145.367 107.859 145.672C107.648 145.977 107.467 146.264 107.314 146.533C107.244 146.639 107.174 146.744 107.104 146.85C107.033 146.955 106.969 147.061 106.91 147.166C106.98 147.154 107.045 147.148 107.104 147.148C107.174 147.148 107.238 147.143 107.297 147.131ZM120.85 151.684C120.662 151.695 120.428 151.689 120.146 151.666C119.877 151.643 119.625 151.684 119.391 151.789C118.77 151.766 118.137 151.689 117.492 151.561C116.848 151.432 116.256 151.273 115.717 151.086C115.6 150.957 115.482 150.84 115.365 150.734C115.248 150.617 115.09 150.535 114.891 150.488C114.609 150.266 114.381 149.996 114.205 149.68C114.029 149.352 113.889 149.006 113.783 148.643C113.678 148.279 113.607 147.91 113.572 147.535C113.537 147.148 113.525 146.779 113.537 146.428C113.713 145.9 113.959 145.449 114.275 145.074C114.604 144.688 114.938 144.307 115.277 143.932C115.43 143.861 115.541 143.791 115.611 143.721C115.693 143.639 115.775 143.568 115.857 143.51C115.951 143.439 116.039 143.375 116.121 143.316C116.215 143.246 116.297 143.164 116.367 143.07C116.613 143.012 116.824 142.93 117 142.824C117.188 142.707 117.369 142.59 117.545 142.473C117.721 142.344 117.902 142.227 118.09 142.121C118.277 142.016 118.494 141.934 118.74 141.875C118.834 141.77 118.945 141.688 119.074 141.629C119.203 141.559 119.332 141.494 119.461 141.436C119.602 141.365 119.73 141.295 119.848 141.225C119.977 141.154 120.076 141.061 120.146 140.943C120.205 141.037 120.287 141.072 120.393 141.049C120.498 141.014 120.598 140.979 120.691 140.943C120.75 140.932 120.797 140.943 120.832 140.979C120.879 141.014 120.92 141.049 120.955 141.084C120.99 141.119 121.02 141.143 121.043 141.154C121.078 141.154 121.107 141.125 121.131 141.066C121.189 141.066 121.207 141.096 121.184 141.154C121.16 141.213 121.143 141.254 121.131 141.277C121.225 141.266 121.301 141.289 121.359 141.348C121.43 141.395 121.535 141.424 121.676 141.436C121.723 141.494 121.734 141.541 121.711 141.576C121.688 141.6 121.676 141.646 121.676 141.717C122.027 141.822 122.25 141.992 122.344 142.227C122.438 142.449 122.443 142.684 122.361 142.93C122.279 143.176 122.133 143.404 121.922 143.615C121.711 143.826 121.482 143.967 121.236 144.037C120.674 144.189 120.141 144.359 119.637 144.547C119.145 144.723 118.74 144.986 118.424 145.338C118.143 145.42 117.891 145.531 117.668 145.672C117.457 145.801 117.252 145.953 117.053 146.129C116.865 146.293 116.684 146.469 116.508 146.656C116.344 146.832 116.168 147.008 115.98 147.184C115.992 147.348 115.963 147.477 115.893 147.57C115.834 147.652 115.775 147.74 115.717 147.834C115.74 148.01 115.781 148.168 115.84 148.309C115.898 148.438 115.963 148.566 116.033 148.695C116.807 148.93 117.627 149.076 118.494 149.135C119.373 149.193 120.252 149.229 121.131 149.24C121.213 149.357 121.307 149.469 121.412 149.574C121.529 149.668 121.635 149.773 121.729 149.891C121.822 149.996 121.898 150.119 121.957 150.26C122.016 150.389 122.027 150.553 121.992 150.752C121.828 150.928 121.646 151.092 121.447 151.244C121.248 151.385 121.049 151.531 120.85 151.684ZM132.416 141.752C132.428 141.834 132.428 141.898 132.416 141.945C132.416 141.98 132.41 142.016 132.398 142.051C132.398 142.086 132.398 142.127 132.398 142.174C132.398 142.209 132.41 142.268 132.434 142.35C132.188 142.748 131.9 143.023 131.572 143.176C131.256 143.316 130.91 143.422 130.535 143.492C130.16 143.551 129.773 143.615 129.375 143.686C128.988 143.756 128.602 143.908 128.215 144.143C128.062 144.084 127.922 144.084 127.793 144.143C127.676 144.201 127.5 144.219 127.266 144.195C127.195 144.266 127.107 144.318 127.002 144.354C126.896 144.377 126.791 144.406 126.686 144.441C126.732 144.547 126.75 144.658 126.738 144.775C126.738 144.881 126.756 144.969 126.791 145.039C127.201 145.074 127.652 145.068 128.145 145.021C128.648 144.975 129.141 144.945 129.621 144.934C129.633 144.992 129.627 145.033 129.604 145.057C129.58 145.068 129.574 145.098 129.586 145.145C129.668 145.203 129.75 145.279 129.832 145.373C129.914 145.455 129.996 145.537 130.078 145.619C130.16 145.701 130.242 145.771 130.324 145.83C130.418 145.877 130.523 145.895 130.641 145.883C130.688 145.977 130.717 146.082 130.729 146.199C130.752 146.305 130.74 146.416 130.693 146.533C130.506 146.662 130.318 146.797 130.131 146.938C129.943 147.066 129.744 147.184 129.533 147.289C129.334 147.395 129.117 147.482 128.883 147.553C128.66 147.611 128.408 147.635 128.127 147.623C128.068 147.623 128.021 147.623 127.986 147.623C127.963 147.623 127.928 147.605 127.881 147.57C127.787 147.629 127.652 147.646 127.477 147.623C127.312 147.6 127.184 147.617 127.09 147.676C126.961 147.617 126.803 147.594 126.615 147.605C126.439 147.605 126.281 147.582 126.141 147.535C125.953 147.781 125.783 148.045 125.631 148.326C125.479 148.607 125.344 148.906 125.227 149.223C125.625 149.281 125.953 149.305 126.211 149.293C126.48 149.281 126.732 149.264 126.967 149.24C127.201 149.205 127.441 149.176 127.688 149.152C127.934 149.117 128.244 149.105 128.619 149.117C128.854 148.988 129.129 148.906 129.445 148.871C129.773 148.824 130.072 148.754 130.342 148.66C130.436 148.695 130.518 148.76 130.588 148.854C130.658 148.936 130.723 149.018 130.781 149.1C130.852 149.17 130.922 149.234 130.992 149.293C131.062 149.352 131.15 149.375 131.256 149.363C131.303 149.41 131.332 149.469 131.344 149.539C131.367 149.598 131.385 149.656 131.396 149.715C131.408 149.773 131.426 149.826 131.449 149.873C131.484 149.908 131.537 149.92 131.607 149.908C131.432 150.295 131.227 150.594 130.992 150.805C130.77 151.004 130.512 151.156 130.219 151.262C129.926 151.367 129.598 151.449 129.234 151.508C128.883 151.566 128.49 151.637 128.057 151.719C127.951 151.742 127.863 151.736 127.793 151.701C127.723 151.678 127.641 151.666 127.547 151.666C127.277 151.725 126.955 151.777 126.58 151.824C126.205 151.871 125.824 151.889 125.438 151.877C125.051 151.865 124.682 151.812 124.33 151.719C123.979 151.637 123.691 151.484 123.469 151.262C123.375 151.18 123.311 151.086 123.275 150.98C123.252 150.863 123.176 150.775 123.047 150.717C123.035 150.564 123.012 150.395 122.977 150.207C122.941 150.02 122.906 149.826 122.871 149.627C122.836 149.416 122.807 149.211 122.783 149.012C122.771 148.812 122.783 148.631 122.818 148.467C122.854 148.291 122.924 148.133 123.029 147.992C123.146 147.852 123.188 147.699 123.152 147.535C123.211 147.523 123.246 147.494 123.258 147.447C123.27 147.389 123.316 147.365 123.398 147.377C123.469 147.166 123.545 146.967 123.627 146.779C123.709 146.592 123.791 146.41 123.873 146.234C123.967 146.059 124.055 145.883 124.137 145.707C124.23 145.52 124.318 145.314 124.4 145.092C124.236 144.939 124.113 144.775 124.031 144.6C123.961 144.412 123.908 144.23 123.873 144.055C123.838 143.867 123.809 143.68 123.785 143.492C123.762 143.293 123.721 143.094 123.662 142.895C123.779 142.719 123.92 142.578 124.084 142.473C124.26 142.355 124.447 142.262 124.646 142.191C124.846 142.121 125.062 142.062 125.297 142.016C125.531 141.969 125.777 141.916 126.035 141.857C126.504 141.705 126.92 141.588 127.283 141.506C127.658 141.424 128.021 141.359 128.373 141.312C128.736 141.254 129.111 141.201 129.498 141.154C129.885 141.107 130.324 141.037 130.816 140.943C130.922 141.049 131.021 141.102 131.115 141.102C131.162 140.996 131.215 140.967 131.273 141.014C131.344 141.049 131.373 141.014 131.361 140.908C131.479 141.107 131.625 141.277 131.801 141.418C131.988 141.547 132.193 141.658 132.416 141.752Z" fill="#312755"/>
<path d="M103.523 176.963V176.059H103.727C103.961 176.059 104.128 176.004 104.227 175.895C104.325 175.786 104.375 175.624 104.375 175.411V170.723H105.335V175.843C105.335 176.192 105.232 176.466 105.027 176.663C104.824 176.863 104.541 176.963 104.179 176.963H103.523ZM104.375 170.067V169.183H105.335V170.067H104.375ZM108.087 175.167C107.767 175.167 107.503 175.114 107.295 175.007C107.087 174.9 106.922 174.764 106.799 174.599C106.677 174.434 106.586 174.258 106.527 174.071C106.469 173.884 106.43 173.708 106.411 173.543C106.395 173.375 106.387 173.239 106.387 173.135V170.723H107.363V172.803C107.363 172.936 107.373 173.087 107.391 173.255C107.41 173.42 107.453 173.58 107.519 173.735C107.589 173.887 107.69 174.012 107.823 174.111C107.959 174.21 108.142 174.259 108.371 174.259C108.494 174.259 108.615 174.239 108.735 174.199C108.855 174.159 108.963 174.091 109.059 173.995C109.158 173.896 109.237 173.762 109.295 173.591C109.354 173.42 109.383 173.204 109.383 172.943L109.955 173.187C109.955 173.555 109.883 173.888 109.739 174.187C109.598 174.486 109.389 174.724 109.111 174.903C108.834 175.079 108.493 175.167 108.087 175.167ZM109.499 175.043V173.703H109.383V170.723H110.351V175.043H109.499ZM116.663 175.043V172.419C116.663 172.123 116.59 171.892 116.443 171.727C116.296 171.559 116.098 171.475 115.847 171.475C115.692 171.475 115.554 171.511 115.431 171.583C115.308 171.652 115.211 171.756 115.139 171.895C115.067 172.031 115.031 172.194 115.031 172.383L114.603 172.131C114.6 171.832 114.667 171.57 114.803 171.343C114.942 171.114 115.128 170.935 115.363 170.807C115.598 170.679 115.859 170.615 116.147 170.615C116.624 170.615 116.99 170.759 117.243 171.047C117.499 171.332 117.627 171.708 117.627 172.175V175.043H116.663ZM111.467 175.043V170.723H112.319V172.063H112.439V175.043H111.467ZM114.071 175.043V172.431C114.071 172.13 113.998 171.895 113.851 171.727C113.704 171.559 113.504 171.475 113.251 171.475C113.006 171.475 112.808 171.559 112.659 171.727C112.512 171.895 112.439 172.114 112.439 172.383L112.007 172.095C112.007 171.815 112.076 171.563 112.215 171.339C112.354 171.115 112.54 170.939 112.775 170.811C113.012 170.68 113.278 170.615 113.571 170.615C113.894 170.615 114.163 170.684 114.379 170.823C114.598 170.959 114.76 171.146 114.867 171.383C114.976 171.618 115.031 171.883 115.031 172.179V175.043H114.071ZM120.746 175.163C120.325 175.163 119.972 175.063 119.686 174.863C119.401 174.663 119.186 174.391 119.042 174.047C118.898 173.7 118.826 173.312 118.826 172.883C118.826 172.448 118.898 172.059 119.042 171.715C119.186 171.371 119.397 171.1 119.674 170.903C119.954 170.703 120.3 170.603 120.71 170.603C121.118 170.603 121.472 170.703 121.77 170.903C122.072 171.1 122.305 171.371 122.47 171.715C122.636 172.056 122.718 172.446 122.718 172.883C122.718 173.315 122.637 173.703 122.474 174.047C122.312 174.391 122.082 174.663 121.786 174.863C121.49 175.063 121.144 175.163 120.746 175.163ZM118.662 176.963V170.723H119.514V173.755H119.634V176.963H118.662ZM120.598 174.299C120.849 174.299 121.056 174.236 121.218 174.111C121.381 173.986 121.501 173.816 121.578 173.603C121.658 173.387 121.698 173.147 121.698 172.883C121.698 172.622 121.658 172.384 121.578 172.171C121.498 171.955 121.374 171.784 121.206 171.659C121.038 171.531 120.825 171.467 120.566 171.467C120.321 171.467 120.121 171.527 119.966 171.647C119.812 171.764 119.697 171.93 119.622 172.143C119.55 172.354 119.514 172.6 119.514 172.883C119.514 173.163 119.55 173.41 119.622 173.623C119.697 173.836 119.813 174.003 119.97 174.123C120.13 174.24 120.34 174.299 120.598 174.299Z" fill="white"/>
<path d="M62.7416 118.114V112.234H63.7056V118.114H62.7416ZM66.8678 118.234C66.4304 118.234 66.0464 118.14 65.7158 117.95C65.3851 117.761 65.1264 117.498 64.9398 117.162C64.7558 116.826 64.6638 116.44 64.6638 116.002C64.6638 115.53 64.7544 115.121 64.9358 114.774C65.1171 114.425 65.3691 114.154 65.6918 113.962C66.0144 113.77 66.3878 113.674 66.8118 113.674C67.2598 113.674 67.6398 113.78 67.9518 113.99C68.2664 114.198 68.4998 114.493 68.6518 114.874C68.8038 115.256 68.8611 115.705 68.8238 116.222H67.8678V115.87C67.8651 115.401 67.7824 115.058 67.6198 114.842C67.4571 114.626 67.2011 114.518 66.8518 114.518C66.4571 114.518 66.1638 114.641 65.9718 114.886C65.7798 115.129 65.6838 115.485 65.6838 115.954C65.6838 116.392 65.7798 116.73 65.9718 116.97C66.1638 117.21 66.4438 117.33 66.8118 117.33C67.0491 117.33 67.2531 117.278 67.4238 117.174C67.5971 117.068 67.7304 116.914 67.8238 116.714L68.7758 117.002C68.6104 117.392 68.3544 117.694 68.0078 117.91C67.6638 118.126 67.2838 118.234 66.8678 118.234ZM65.3798 116.222V115.494H68.3518V116.222H65.3798ZM70.0923 118.114V113.726C70.0923 113.617 70.0963 113.497 70.1043 113.366C70.1123 113.233 70.1349 113.101 70.1723 112.97C70.2096 112.84 70.2776 112.721 70.3763 112.614C70.4989 112.478 70.6309 112.385 70.7723 112.334C70.9163 112.281 71.0576 112.252 71.1963 112.246C71.3349 112.238 71.4563 112.234 71.5603 112.234H72.1003V113.018H71.6003C71.4163 113.018 71.2789 113.065 71.1883 113.158C71.1003 113.249 71.0563 113.369 71.0563 113.518V118.114H70.0923ZM69.3963 114.55V113.794H72.1003V114.55H69.3963ZM75.2717 118.114C74.9864 118.168 74.7064 118.19 74.4317 118.182C74.1597 118.177 73.9157 118.128 73.6997 118.034C73.4837 117.938 73.3197 117.788 73.2077 117.582C73.109 117.396 73.057 117.205 73.0517 117.01C73.0464 116.816 73.0437 116.596 73.0437 116.35V112.594H74.0037V116.294C74.0037 116.468 74.005 116.62 74.0077 116.75C74.013 116.881 74.041 116.988 74.0917 117.07C74.1877 117.23 74.341 117.32 74.5517 117.338C74.7624 117.357 75.0024 117.346 75.2717 117.306V118.114ZM72.2597 114.55V113.794H75.2717V114.55H72.2597Z" fill="white"/>
<path d="M150.407 118.114V113.794H151.151V114.842L151.047 114.706C151.1 114.568 151.169 114.441 151.255 114.326C151.34 114.209 151.439 114.113 151.551 114.038C151.66 113.958 151.781 113.897 151.915 113.854C152.051 113.809 152.189 113.782 152.331 113.774C152.472 113.764 152.608 113.77 152.739 113.794V114.578C152.597 114.541 152.44 114.53 152.267 114.546C152.096 114.562 151.939 114.617 151.795 114.71C151.659 114.798 151.551 114.905 151.471 115.03C151.393 115.156 151.337 115.296 151.303 115.45C151.268 115.602 151.251 115.764 151.251 115.934V118.114H150.407ZM153.58 113.086V112.274H154.416V113.086H153.58ZM153.58 118.114V113.794H154.416V118.114H153.58ZM157.398 120.154C157.166 120.154 156.94 120.118 156.722 120.046C156.506 119.974 156.308 119.868 156.13 119.726C155.951 119.588 155.803 119.416 155.686 119.21L156.458 118.818C156.551 119.002 156.684 119.137 156.858 119.222C157.031 119.308 157.214 119.35 157.406 119.35C157.643 119.35 157.846 119.308 158.014 119.222C158.182 119.14 158.308 119.014 158.394 118.846C158.482 118.678 158.524 118.47 158.522 118.222V117.014H158.622V113.794H159.362V118.23C159.362 118.345 159.358 118.454 159.35 118.558C159.342 118.662 159.327 118.766 159.306 118.87C159.244 119.161 159.127 119.401 158.954 119.59C158.783 119.78 158.564 119.921 158.298 120.014C158.034 120.108 157.734 120.154 157.398 120.154ZM157.334 118.234C156.931 118.234 156.583 118.134 156.29 117.934C155.999 117.734 155.774 117.462 155.614 117.118C155.456 116.772 155.378 116.382 155.378 115.95C155.378 115.516 155.458 115.128 155.618 114.786C155.778 114.442 156.004 114.172 156.298 113.974C156.594 113.774 156.944 113.674 157.35 113.674C157.758 113.674 158.1 113.774 158.378 113.974C158.658 114.172 158.868 114.442 159.01 114.786C159.154 115.13 159.226 115.518 159.226 115.95C159.226 116.382 159.154 116.77 159.01 117.114C158.866 117.458 158.654 117.732 158.374 117.934C158.094 118.134 157.747 118.234 157.334 118.234ZM157.45 117.478C157.724 117.478 157.948 117.413 158.122 117.282C158.295 117.152 158.422 116.972 158.502 116.742C158.582 116.513 158.622 116.249 158.622 115.95C158.622 115.652 158.58 115.388 158.498 115.158C158.418 114.929 158.292 114.75 158.122 114.622C157.954 114.494 157.739 114.43 157.478 114.43C157.2 114.43 156.972 114.498 156.794 114.634C156.615 114.77 156.482 114.953 156.394 115.182C156.308 115.412 156.266 115.668 156.266 115.95C156.266 116.236 156.308 116.494 156.394 116.726C156.482 116.956 156.612 117.138 156.786 117.274C156.962 117.41 157.183 117.478 157.45 117.478ZM163.517 118.114V115.99C163.517 115.822 163.502 115.65 163.473 115.474C163.446 115.296 163.393 115.13 163.313 114.978C163.235 114.826 163.125 114.704 162.981 114.61C162.839 114.517 162.654 114.47 162.425 114.47C162.275 114.47 162.134 114.496 162.001 114.546C161.867 114.594 161.75 114.673 161.649 114.782C161.55 114.892 161.471 115.036 161.413 115.214C161.357 115.393 161.329 115.61 161.329 115.866L160.809 115.67C160.809 115.278 160.882 114.933 161.029 114.634C161.175 114.333 161.386 114.098 161.661 113.93C161.935 113.762 162.267 113.678 162.657 113.678C162.955 113.678 163.206 113.726 163.409 113.822C163.611 113.918 163.775 114.045 163.901 114.202C164.029 114.357 164.126 114.526 164.193 114.71C164.259 114.894 164.305 115.074 164.329 115.25C164.353 115.426 164.365 115.581 164.365 115.714V118.114H163.517ZM160.481 118.114V112.354H161.229V115.462H161.329V118.114H160.481ZM167.879 118.114C167.607 118.168 167.34 118.19 167.079 118.182C166.817 118.174 166.584 118.124 166.379 118.03C166.173 117.937 166.019 117.79 165.915 117.59C165.821 117.412 165.771 117.23 165.763 117.046C165.757 116.86 165.755 116.649 165.755 116.414V112.594H166.595V116.374C166.595 116.548 166.596 116.698 166.599 116.826C166.604 116.954 166.632 117.062 166.683 117.15C166.779 117.316 166.931 117.41 167.139 117.434C167.349 117.456 167.596 117.446 167.879 117.406V118.114ZM164.927 114.466V113.794H167.879V114.466H164.927Z" fill="white"/>
<path d="M103.459 82.6532C102.926 82.6532 102.492 82.5332 102.159 82.2932C101.826 82.0532 101.623 81.7159 101.551 81.2812L102.535 81.1292C102.586 81.3425 102.698 81.5105 102.871 81.6332C103.044 81.7559 103.263 81.8172 103.527 81.8172C103.759 81.8172 103.938 81.7719 104.063 81.6812C104.191 81.5879 104.255 81.4612 104.255 81.3012C104.255 81.2025 104.231 81.1239 104.183 81.0652C104.138 81.0039 104.036 80.9452 103.879 80.8892C103.722 80.8332 103.48 80.7625 103.155 80.6772C102.792 80.5812 102.504 80.4785 102.291 80.3692C102.078 80.2572 101.924 80.1252 101.831 79.9732C101.738 79.8212 101.691 79.6372 101.691 79.4212C101.691 79.1519 101.762 78.9172 101.903 78.7172C102.044 78.5172 102.242 78.3639 102.495 78.2572C102.748 78.1479 103.047 78.0932 103.391 78.0932C103.727 78.0932 104.024 78.1452 104.283 78.2492C104.544 78.3532 104.755 78.5012 104.915 78.6932C105.075 78.8852 105.174 79.1105 105.211 79.3692L104.227 79.5452C104.203 79.3612 104.119 79.2159 103.975 79.1092C103.834 79.0025 103.644 78.9425 103.407 78.9292C103.18 78.9159 102.998 78.9505 102.859 79.0332C102.72 79.1132 102.651 79.2265 102.651 79.3732C102.651 79.4559 102.679 79.5265 102.735 79.5852C102.791 79.6439 102.903 79.7025 103.071 79.7612C103.242 79.8199 103.495 79.8919 103.831 79.9772C104.175 80.0652 104.45 80.1665 104.655 80.2812C104.863 80.3932 105.012 80.5279 105.103 80.6852C105.196 80.8425 105.243 81.0332 105.243 81.2572C105.243 81.6919 105.084 82.0332 104.767 82.2812C104.452 82.5292 104.016 82.6532 103.459 82.6532ZM109.107 82.5332V80.4532C109.107 80.3172 109.098 80.1665 109.079 80.0012C109.06 79.8359 109.016 79.6772 108.947 79.5252C108.88 79.3705 108.779 79.2439 108.643 79.1452C108.51 79.0465 108.328 78.9972 108.099 78.9972C107.976 78.9972 107.855 79.0172 107.735 79.0572C107.615 79.0972 107.506 79.1665 107.407 79.2652C107.311 79.3612 107.234 79.4945 107.175 79.6652C107.116 79.8332 107.087 80.0492 107.087 80.3132L106.515 80.0692C106.515 79.7012 106.586 79.3679 106.727 79.0692C106.871 78.7705 107.082 78.5332 107.359 78.3572C107.636 78.1785 107.978 78.0892 108.383 78.0892C108.703 78.0892 108.967 78.1425 109.175 78.2492C109.383 78.3559 109.548 78.4919 109.671 78.6572C109.794 78.8225 109.884 78.9985 109.943 79.1852C110.002 79.3719 110.039 79.5492 110.055 79.7172C110.074 79.8825 110.083 80.0172 110.083 80.1212V82.5332H109.107ZM106.111 82.5332V76.7732H106.971V79.8052H107.087V82.5332H106.111ZM113.035 82.6532C112.603 82.6532 112.226 82.5559 111.903 82.3612C111.58 82.1665 111.33 81.8985 111.151 81.5572C110.975 81.2132 110.887 80.8185 110.887 80.3732C110.887 79.9199 110.978 79.5225 111.159 79.1812C111.34 78.8399 111.592 78.5732 111.915 78.3812C112.238 78.1892 112.611 78.0932 113.035 78.0932C113.47 78.0932 113.848 78.1905 114.171 78.3852C114.494 78.5799 114.744 78.8492 114.923 79.1932C115.102 79.5345 115.191 79.9279 115.191 80.3732C115.191 80.8212 115.1 81.2172 114.919 81.5612C114.74 81.9025 114.49 82.1705 114.167 82.3652C113.844 82.5572 113.467 82.6532 113.035 82.6532ZM113.035 81.7492C113.419 81.7492 113.704 81.6212 113.891 81.3652C114.078 81.1092 114.171 80.7785 114.171 80.3732C114.171 79.9545 114.076 79.6212 113.887 79.3732C113.698 79.1225 113.414 78.9972 113.035 78.9972C112.776 78.9972 112.563 79.0559 112.395 79.1732C112.23 79.2879 112.107 79.4492 112.027 79.6572C111.947 79.8625 111.907 80.1012 111.907 80.3732C111.907 80.7919 112.002 81.1265 112.191 81.3772C112.383 81.6252 112.664 81.7492 113.035 81.7492ZM117.98 82.6532C117.548 82.6532 117.171 82.5559 116.848 82.3612C116.526 82.1665 116.275 81.8985 116.096 81.5572C115.92 81.2132 115.832 80.8185 115.832 80.3732C115.832 79.9199 115.923 79.5225 116.104 79.1812C116.286 78.8399 116.538 78.5732 116.86 78.3812C117.183 78.1892 117.556 78.0932 117.98 78.0932C118.415 78.0932 118.794 78.1905 119.116 78.3852C119.439 78.5799 119.69 78.8492 119.868 79.1932C120.047 79.5345 120.136 79.9279 120.136 80.3732C120.136 80.8212 120.046 81.2172 119.864 81.5612C119.686 81.9025 119.435 82.1705 119.112 82.3652C118.79 82.5572 118.412 82.6532 117.98 82.6532ZM117.98 81.7492C118.364 81.7492 118.65 81.6212 118.836 81.3652C119.023 81.1092 119.116 80.7785 119.116 80.3732C119.116 79.9545 119.022 79.6212 118.832 79.3732C118.643 79.1225 118.359 78.9972 117.98 78.9972C117.722 78.9972 117.508 79.0559 117.34 79.1732C117.175 79.2879 117.052 79.4492 116.972 79.6572C116.892 79.8625 116.852 80.1012 116.852 80.3732C116.852 80.7919 116.947 81.1265 117.136 81.3772C117.328 81.6252 117.61 81.7492 117.98 81.7492ZM123.55 82.5332C123.264 82.5865 122.984 82.6092 122.71 82.6012C122.438 82.5959 122.194 82.5465 121.978 82.4532C121.762 82.3572 121.598 82.2065 121.486 82.0012C121.387 81.8145 121.335 81.6239 121.33 81.4292C121.324 81.2345 121.322 81.0145 121.322 80.7692V77.0132H122.282V80.7132C122.282 80.8865 122.283 81.0385 122.286 81.1692C122.291 81.2999 122.319 81.4065 122.37 81.4892C122.466 81.6492 122.619 81.7385 122.83 81.7572C123.04 81.7759 123.28 81.7652 123.55 81.7252V82.5332ZM120.538 78.9692V78.2132H123.55V78.9692H120.538Z" fill="white"/>
</g>
<defs>
<filter id="filter0_d_56_1176" x="0" y="0" width="228.548" height="216.384" filterUnits="userSpaceOnUse" color-interpolation-filters="sRGB">
<feFlood flood-opacity="0" result="BackgroundImageFix"/>
<feColorMatrix in="SourceAlpha" type="matrix" values="0 0 0 0 0 0 0 0 0 0 0 0 0 0 0 0 0 0 127 0" result="hardAlpha"/>
<feOffset dy="4"/>
<feGaussianBlur stdDeviation="2"/>
<feComposite in2="hardAlpha" operator="out"/>
<feColorMatrix type="matrix" values="0 0 0 0 0 0 0 0 0 0 0 0 0 0 0 0 0 0 0.25 0"/>
<feBlend mode="normal" in2="BackgroundImageFix" result="effect1_dropShadow_56_1176"/>
<feBlend mode="normal" in="SourceGraphic" in2="effect1_dropShadow_56_1176" result="shape"/>
</filter>
<filter id="filter1_d_56_1176" x="98.8594" y="42.6968" width="33.6436" height="32.4644" filterUnits="userSpaceOnUse" color-interpolation-filters="sRGB">
<feFlood flood-opacity="0" result="BackgroundImageFix"/>
<feColorMatrix in="SourceAlpha" type="matrix" values="0 0 0 0 0 0 0 0 0 0 0 0 0 0 0 0 0 0 127 0" result="hardAlpha"/>
<feOffset dx="2" dy="2"/>
<feGaussianBlur stdDeviation="1"/>
<feComposite in2="hardAlpha" operator="out"/>
<feColorMatrix type="matrix" values="0 0 0 0 0.0555208 0 0 0 0 0.325 0 0 0 0 0.305922 0 0 0 0.2 0"/>
<feBlend mode="normal" in2="BackgroundImageFix" result="effect1_dropShadow_56_1176"/>
<feBlend mode="normal" in="SourceGraphic" in2="effect1_dropShadow_56_1176" result="shape"/>
</filter>
<filter id="filter2_d_56_1176" x="145.104" y="79.4634" width="32.458" height="32.4644" filterUnits="userSpaceOnUse" color-interpolation-filters="sRGB">
<feFlood flood-opacity="0" result="BackgroundImageFix"/>
<feColorMatrix in="SourceAlpha" type="matrix" values="0 0 0 0 0 0 0 0 0 0 0 0 0 0 0 0 0 0 127 0" result="hardAlpha"/>
<feOffset dx="2" dy="2"/>
<feGaussianBlur stdDeviation="1"/>
<feComposite in2="hardAlpha" operator="out"/>
<feColorMatrix type="matrix" values="0 0 0 0 0.0555208 0 0 0 0 0.325 0 0 0 0 0.305922 0 0 0 0.2 0"/>
<feBlend mode="normal" in2="BackgroundImageFix" result="effect1_dropShadow_56_1176"/>
<feBlend mode="normal" in="SourceGraphic" in2="effect1_dropShadow_56_1176" result="shape"/>
</filter>
<filter id="filter3_d_56_1176" x="54.9868" y="79.4634" width="32.458" height="32.4644" filterUnits="userSpaceOnUse" color-interpolation-filters="sRGB">
<feFlood flood-opacity="0" result="BackgroundImageFix"/>
<feColorMatrix in="SourceAlpha" type="matrix" values="0 0 0 0 0 0 0 0 0 0 0 0 0 0 0 0 0 0 127 0" result="hardAlpha"/>
<feOffset dx="2" dy="2"/>
<feGaussianBlur stdDeviation="1"/>
<feComposite in2="hardAlpha" operator="out"/>
<feColorMatrix type="matrix" values="0 0 0 0 0.0555208 0 0 0 0 0.325 0 0 0 0 0.305922 0 0 0 0.2 0"/>
<feBlend mode="normal" in2="BackgroundImageFix" result="effect1_dropShadow_56_1176"/>
<feBlend mode="normal" in="SourceGraphic" in2="effect1_dropShadow_56_1176" result="shape"/>
</filter>
<filter id="filter4_d_56_1176" x="54.9868" y="134.021" width="122.574" height="32.4644" filterUnits="userSpaceOnUse" color-interpolation-filters="sRGB">
<feFlood flood-opacity="0" result="BackgroundImageFix"/>
<feColorMatrix in="SourceAlpha" type="matrix" values="0 0 0 0 0 0 0 0 0 0 0 0 0 0 0 0 0 0 127 0" result="hardAlpha"/>
<feOffset dx="2" dy="2"/>
<feGaussianBlur stdDeviation="1"/>
<feComposite in2="hardAlpha" operator="out"/>
<feColorMatrix type="matrix" values="0 0 0 0 0.0555208 0 0 0 0 0.325 0 0 0 0 0.305922 0 0 0 0.2 0"/>
<feBlend mode="normal" in2="BackgroundImageFix" result="effect1_dropShadow_56_1176"/>
<feBlend mode="normal" in="SourceGraphic" in2="effect1_dropShadow_56_1176" result="shape"/>
</filter>
</defs>
</svg>
